HIERARCHY
ROOT Hips
{
	OFFSET 0.00000 0.00000 0.00000
	CHANNELS 6 Xposition Yposition Zposition Zrotation Yrotation Xrotation 
	JOINT LHipJoint
	{
		OFFSET 0 0 0
		CHANNELS 3 Zrotation Yrotation Xrotation
		JOINT LeftUpLeg
		{
			OFFSET 1.65674 -1.80282 0.62477
			CHANNELS 3 Zrotation Yrotation Xrotation
			JOINT LeftLeg
			{
				OFFSET 2.59720 -7.13576 0.00000
				CHANNELS 3 Zrotation Yrotation Xrotation
				JOINT LeftFoot
				{
					OFFSET 2.49236 -6.84770 0.00000
					CHANNELS 3 Zrotation Yrotation Xrotation
					JOINT LeftToeBase
					{
						OFFSET 0.19704 -0.54136 2.14581
						CHANNELS 3 Zrotation Yrotation Xrotation
						End Site
						{
							OFFSET 0.00000 -0.00000 1.11249
						}
					}
				}
			}
		}
	}
	JOINT RHipJoint
	{
		OFFSET 0 0 0
		CHANNELS 3 Zrotation Yrotation Xrotation
		JOINT RightUpLeg
		{
			OFFSET -1.61070 -1.80282 0.62476
			CHANNELS 3 Zrotation Yrotation Xrotation
			JOINT RightLeg
			{
				OFFSET -2.59502 -7.12977 0.00000
				CHANNELS 3 Zrotation Yrotation Xrotation
				JOINT RightFoot
				{
					OFFSET -2.46780 -6.78024 0.00000
					CHANNELS 3 Zrotation Yrotation Xrotation
					JOINT RightToeBase
					{
						OFFSET -0.23024 -0.63258 2.13368
						CHANNELS 3 Zrotation Yrotation Xrotation
						End Site
						{
							OFFSET -0.00000 -0.00000 1.11569
						}
					}
				}
			}
		}
	}
	JOINT LowerBack
	{
		OFFSET 0 0 0
		CHANNELS 3 Zrotation Yrotation Xrotation
		JOINT Spine
		{
			OFFSET 0.01961 2.05450 -0.14112
			CHANNELS 3 Zrotation Yrotation Xrotation
			JOINT Spine1
			{
				OFFSET 0.01021 2.06436 -0.05921
				CHANNELS 3 Zrotation Yrotation Xrotation
				JOINT Neck
				{
					OFFSET 0 0 0
					CHANNELS 3 Zrotation Yrotation Xrotation
					JOINT Neck1
					{
						OFFSET 0.00713 1.56711 0.14968
						CHANNELS 3 Zrotation Yrotation Xrotation
						JOINT Head
						{
							OFFSET 0.03429 1.56041 -0.10006
							CHANNELS 3 Zrotation Yrotation Xrotation
							End Site
							{
								OFFSET 0.01305 1.62560 -0.05265
							}
						}
					}
				}
				JOINT LeftShoulder
				{
					OFFSET 0 0 0
					CHANNELS 3 Zrotation Yrotation Xrotation
					JOINT LeftArm
					{
						OFFSET 3.54205 0.90436 -0.17364
						CHANNELS 3 Zrotation Yrotation Xrotation
						JOINT LeftForeArm
						{
							OFFSET 4.86513 -0.00000 -0.00000
							CHANNELS 3 Zrotation Yrotation Xrotation
							JOINT LeftHand
							{
								OFFSET 3.35554 -0.00000 0.00000
								CHANNELS 3 Zrotation Yrotation Xrotation
								JOINT LeftFingerBase
								{
									OFFSET 0 0 0
									CHANNELS 3 Zrotation Yrotation Xrotation
									JOINT LeftHandIndex1
									{
										OFFSET 0.66117 -0.00000 0.00000
										CHANNELS 3 Zrotation Yrotation Xrotation
										End Site
										{
											OFFSET 0.53306 -0.00000 0.00000
										}
									}
								}
								JOINT LThumb
								{
									OFFSET 0 0 0
									CHANNELS 3 Zrotation Yrotation Xrotation
									End Site
									{
										OFFSET 0.54120 -0.00000 0.54120
									}
								}
							}
						}
					}
				}
				JOINT RightShoulder
				{
					OFFSET 0 0 0
					CHANNELS 3 Zrotation Yrotation Xrotation
					JOINT RightArm
					{
						OFFSET -3.49802 0.75994 -0.32616
						CHANNELS 3 Zrotation Yrotation Xrotation
						JOINT RightForeArm
						{
							OFFSET -5.02649 -0.00000 0.00000
							CHANNELS 3 Zrotation Yrotation Xrotation
							JOINT RightHand
							{
								OFFSET -3.36431 -0.00000 0.00000
								CHANNELS 3 Zrotation Yrotation Xrotation
								JOINT RightFingerBase
								{
									OFFSET 0 0 0
									CHANNELS 3 Zrotation Yrotation Xrotation
									JOINT RightHandIndex1
									{
										OFFSET -0.73041 -0.00000 0.00000
										CHANNELS 3 Zrotation Yrotation Xrotation
										End Site
										{
											OFFSET -0.58887 -0.00000 0.00000
										}
									}
								}
								JOINT RThumb
								{
									OFFSET 0 0 0
									CHANNELS 3 Zrotation Yrotation Xrotation
									End Site
									{
										OFFSET -0.59786 -0.00000 0.59786
									}
								}
							}
						}
					}
				}
			}
		}
	}
}
MOTION
Frames: 19
Frame Time: 0.033333
10.05 17.49 -0.72 2.30 -3.30 -5.43 0.00 0.00 0.00 -28.68 -3.62 -6.04 2.37 9.59 27.65 0.63 5.49 -17.97 0.01 -0.79 -2.18 0.00 0.00 0.00 18.31 7.61 -11.69 -13.22 -18.86 69.81 0.77 -15.55 -8.55 -0.76 5.58 -15.57 -1.49 -0.04 5.85 0.08 -0.14 1.65 0.93 -0.07 -1.58 3.74 7.97 -8.23 -3.84 10.55 5.70 -1.28 5.15 3.78 -0.00 -0.00 0.00 -91.19 3.97 22.53 21.54 -32.45 -6.34 -0.00 0.00 -24.80 23.52 21.99 9.26 -7.12 0.00 -0.00 -5.59 53.66 -1.19 -0.00 -0.00 0.00 85.58 1.74 32.48 -16.81 26.61 -4.00 0.00 -0.00 -11.06 -22.49 14.92 -6.09 7.12 -0.00 -0.00 3.43 -13.91 2.51
10.06 17.46 -0.09 2.28 -1.50 -5.22 0.00 0.00 0.00 -29.12 -3.64 -3.73 2.33 9.53 27.47 0.84 4.30 -19.43 0.06 -1.53 -4.21 0.00 0.00 0.00 17.79 9.22 -16.45 -12.56 -18.62 67.75 0.58 -14.70 -12.05 -0.84 5.85 -16.34 -1.78 -0.41 6.08 0.35 -0.64 1.63 1.40 -0.32 -1.71 3.48 7.59 -7.61 -4.00 10.08 5.29 -1.35 4.92 3.49 -0.00 -0.00 0.00 -90.03 2.35 27.05 26.37 -37.57 -9.11 -0.00 0.00 -26.75 24.12 22.07 9.55 -7.12 0.00 -0.00 -4.99 53.87 -1.09 -0.00 -0.00 0.00 86.03 -1.25 29.30 -14.40 23.30 -2.98 0.00 -0.00 -11.54 -22.53 15.89 -6.48 7.12 -0.00 -0.00 3.46 -12.87 2.60
10.08 17.41 0.56 1.87 0.41 -5.40 0.00 0.00 0.00 -29.14 -3.23 -0.56 2.25 9.37 26.97 1.10 3.02 -21.15 0.08 -1.78 -4.91 0.00 0.00 0.00 17.53 10.74 -19.24 -10.82 -17.84 62.18 0.11 -11.88 -15.27 -0.69 5.30 -14.77 -1.69 -0.95 6.72 0.70 -1.36 1.57 1.78 -0.67 -2.09 3.38 7.57 -7.66 -3.78 10.07 5.88 -1.25 4.92 3.68 -0.00 0.00 0.00 -89.02 1.08 30.04 31.50 -42.14 -12.40 -0.00 0.00 -27.61 23.57 19.23 8.18 -7.12 0.00 -0.00 -4.73 50.76 -0.67 -0.00 0.00 0.00 86.65 -4.26 23.93 -12.19 20.09 -2.17 0.00 -0.00 -8.12 -21.48 14.49 -5.62 7.12 -0.00 -0.00 4.09 -14.48 2.94
10.09 17.41 1.25 2.68 2.08 -5.55 0.00 0.00 0.00 -30.22 -2.48 3.32 1.89 8.64 24.67 1.17 2.17 -21.29 0.05 -1.50 -4.12 0.00 0.00 0.00 15.83 12.40 -20.43 -8.19 -16.26 53.24 -0.25 -9.37 -17.09 -0.63 5.08 -14.13 -2.84 -1.17 6.95 0.66 -1.74 1.78 2.42 -0.86 -1.95 2.42 7.26 -7.63 -2.97 9.67 5.46 -0.86 4.73 3.40 0.00 0.00 0.00 -87.85 -0.27 32.90 37.41 -46.46 -16.54 -0.00 0.00 -28.38 24.93 17.07 7.77 -7.12 0.00 -0.00 -2.89 48.67 -0.26 0.00 0.00 0.00 87.39 -7.19 17.96 -10.30 17.20 -1.56 0.00 -0.00 -5.49 -21.44 16.12 -6.22 7.12 -0.00 -0.00 4.20 -12.77 3.18
10.09 17.44 1.95 2.75 3.68 -4.92 0.00 0.00 0.00 -30.11 -1.50 7.09 1.34 7.34 20.72 1.06 1.80 -20.14 0.13 -2.37 -6.52 0.00 0.00 0.00 14.47 14.52 -21.13 -5.25 -13.67 41.91 -0.26 -9.41 -17.26 -0.81 5.73 -16.01 -3.19 -1.50 6.34 0.79 -2.18 1.99 2.76 -1.09 -1.35 2.57 7.03 -8.84 -3.13 9.35 5.76 -0.91 4.55 3.75 -0.00 0.00 0.00 -86.93 -1.96 34.77 43.13 -49.82 -20.80 -0.00 0.00 -28.66 25.84 14.73 7.02 -7.12 0.00 -0.00 -1.61 46.26 -0.05 -0.00 0.00 0.00 88.27 -9.17 10.81 -8.38 14.16 -1.04 0.00 -0.00 -0.74 -21.40 18.44 -7.07 7.12 -0.00 -0.00 4.38 -10.32 3.53
10.08 17.44 2.66 2.28 4.98 -4.72 0.00 0.00 0.00 -29.15 -0.47 11.06 0.95 6.20 17.36 1.04 0.60 -19.52 0.06 -1.57 -4.31 0.00 0.00 0.00 14.28 16.04 -20.56 -2.92 -10.56 30.82 -0.49 -8.84 -19.25 -0.91 6.07 -16.99 -3.06 -1.78 6.34 1.14 -2.53 2.04 3.07 -1.27 -1.26 2.01 6.58 -8.74 -3.19 8.79 4.93 -0.89 4.27 3.39 0.00 -0.00 0.00 -86.19 -2.75 36.15 48.68 -52.45 -25.13 -0.00 0.00 -29.63 26.92 12.85 6.44 -7.12 0.00 -0.00 -0.35 44.33 0.01 0.00 -0.00 0.00 88.78 -11.84 4.38 -7.01 11.94 -0.73 0.00 0.00 4.50 -21.40 14.64 -5.66 7.12 -0.00 -0.00 4.15 -14.34 3.00
10.11 17.44 3.39 2.54 6.05 -4.20 0.00 0.00 0.00 -28.82 1.33 15.60 0.45 4.29 11.90 0.79 0.54 -17.04 0.21 -2.92 -8.06 0.00 0.00 0.00 14.07 13.07 -22.75 -1.82 -8.49 24.20 -0.77 -6.07 -19.86 -0.86 5.91 -16.54 -3.07 -2.19 6.04 1.08 -3.07 1.78 3.04 -1.54 -1.33 1.64 6.41 -9.71 -2.80 8.60 5.92 -0.66 4.16 3.88 0.00 -0.00 0.00 -85.72 -2.60 36.24 52.94 -54.11 -28.54 -0.00 0.00 -28.61 26.84 12.05 6.03 -7.12 0.00 -0.00 -0.34 43.43 0.01 0.00 -0.00 0.00 89.59 -14.62 -1.28 -6.15 10.51 -0.57 0.00 0.00 9.08 -20.44 14.12 -5.20 7.12 -0.00 -0.00 4.78 -14.99 3.39
10.09 17.38 4.16 2.69 7.06 -4.03 0.00 0.00 0.00 -28.28 2.35 19.92 0.23 3.08 8.51 0.62 0.84 -15.16 0.39 -4.03 -11.17 0.00 0.00 0.00 15.40 8.31 -25.36 -1.50 -7.73 21.91 -0.85 -3.75 -19.18 -1.58 7.93 -22.50 -3.26 -2.40 5.79 1.17 -3.36 1.96 3.25 -1.69 -0.96 1.38 5.93 -10.41 -3.25 8.01 5.48 -0.79 3.84 3.86 0.00 0.00 0.00 -85.67 -2.64 36.63 55.64 -55.03 -30.74 -0.00 0.00 -28.60 27.13 12.09 6.12 -7.12 0.00 -0.00 -0.08 43.51 0.00 0.00 0.00 0.00 90.30 -16.39 -7.02 -5.48 9.40 -0.45 0.00 0.00 13.89 -19.31 15.19 -5.24 7.12 -0.00 -0.00 5.59 -13.99 4.09
10.05 17.29 4.95 2.19 6.80 -3.92 0.00 0.00 0.00 -27.10 3.52 22.42 0.23 3.05 8.43 0.52 0.95 -13.99 0.58 -4.88 -13.56 0.00 0.00 0.00 16.48 10.01 -24.91 -1.68 -8.16 23.21 -0.83 -5.23 -19.83 -0.81 5.75 -16.07 -3.03 -2.47 5.37 1.46 -3.43 1.91 3.40 -1.73 -0.77 1.33 5.60 -11.30 -3.61 7.61 5.92 -0.89 3.61 4.20 0.00 0.00 0.00 -86.04 -1.35 35.93 56.10 -55.18 -31.12 -0.00 0.00 -27.77 26.52 12.31 6.07 -7.12 0.00 -0.00 -0.66 43.69 0.02 0.00 0.00 0.00 90.58 -17.73 -10.42 -5.11 8.77 -0.39 0.00 0.00 17.30 -18.28 11.93 -3.90 7.12 -0.00 -0.00 6.22 -17.49 4.08
10.01 17.21 5.79 2.84 6.62 -3.94 0.00 0.00 0.00 -27.25 4.35 23.16 0.47 4.39 12.19 0.48 0.74 -13.33 1.08 -6.62 -18.59 0.00 0.00 0.00 16.39 11.94 -23.57 -2.17 -9.22 26.49 -0.43 -7.84 -17.70 -0.88 5.99 -16.75 -3.80 -2.62 4.95 1.28 -3.65 1.75 3.64 -1.84 -0.65 1.47 5.47 -11.45 -4.00 7.47 6.21 -1.06 3.52 4.36 -0.00 0.00 0.00 -86.35 1.17 35.37 54.85 -54.77 -30.09 -0.00 0.00 -28.50 27.60 11.73 6.07 -7.12 0.00 -0.00 0.39 43.16 -0.02 -0.00 0.00 0.00 90.92 -18.69 -10.99 -4.86 8.34 -0.35 0.00 0.00 17.46 -18.80 10.90 -3.68 7.12 -0.00 -0.00 5.83 -18.52 3.70
9.99 17.17 6.65 0.63 6.19 -4.58 0.00 0.00 0.00 -24.38 4.72 22.24 1.22 7.01 19.74 0.36 0.50 -11.57 1.49 -7.71 -21.82 0.00 0.00 0.00 19.44 13.04 -22.22 -2.73 -10.24 29.77 -0.07 -8.94 -13.99 -0.34 3.73 -10.33 -1.41 -2.87 4.76 1.93 -3.86 1.68 2.97 -1.94 -0.71 1.16 5.38 -11.02 -4.26 7.40 5.90 -1.11 3.47 4.16 -0.00 0.00 0.00 -87.45 3.49 33.81 50.52 -53.20 -26.59 -0.00 0.00 -27.67 27.51 10.78 5.56 -7.12 0.00 -0.00 0.39 42.09 -0.03 -0.00 0.00 0.00 90.78 -18.79 -11.43 -4.84 8.31 -0.35 0.00 0.00 17.47 -17.52 13.02 -4.07 7.12 -0.00 -0.00 6.75 -16.41 4.60
9.96 17.14 7.45 -0.47 4.97 -5.05 0.00 0.00 0.00 -22.31 5.60 18.60 2.83 10.42 30.34 0.08 0.74 -5.68 2.08 -9.04 -25.91 0.00 0.00 0.00 21.85 13.50 -20.96 -3.49 -11.46 33.83 -0.19 -7.79 -14.43 -0.01 0.67 -1.84 -0.42 -2.79 4.83 2.28 -3.71 1.68 2.78 -1.86 -0.80 1.51 5.26 -11.20 -4.77 7.24 5.87 -1.35 3.38 4.23 -0.00 0.00 0.00 -88.98 5.30 31.63 43.07 -49.79 -20.76 -0.00 0.00 -25.67 25.75 12.29 5.86 -7.12 0.00 -0.00 -1.36 43.58 0.05 -0.00 0.00 0.00 90.58 -17.59 -11.71 -4.95 8.51 -0.37 0.00 0.00 17.99 -17.48 12.65 -3.95 7.12 -0.00 -0.00 6.78 -16.80 4.56
9.91 17.16 8.19 -0.78 4.56 -5.48 0.00 0.00 0.00 -21.10 4.78 13.44 5.29 13.70 42.05 0.06 4.14 4.81 2.07 -9.01 -25.84 0.00 0.00 0.00 23.49 13.90 -18.47 -3.91 -12.04 35.89 -0.36 -7.40 -16.34 -0.05 -1.41 3.88 -0.49 -2.76 5.45 2.41 -3.66 1.62 2.98 -1.83 -1.19 1.01 4.80 -10.53 -4.20 6.60 5.05 -1.14 3.10 3.73 0.00 -0.00 0.00 -90.56 6.51 29.53 35.27 -45.00 -15.00 -0.00 0.00 -25.20 24.87 15.22 6.94 -7.12 0.00 -0.00 -2.61 46.66 -0.11 0.00 -0.00 0.00 90.30 -15.69 -9.76 -5.40 9.25 -0.44 0.00 0.00 16.07 -16.80 13.33 -3.98 7.12 -0.00 -0.00 7.26 -16.15 4.99
9.86 17.20 8.83 -1.79 4.70 -5.09 0.00 0.00 0.00 -19.37 2.49 5.44 8.83 16.70 55.49 0.36 12.70 12.99 0.81 -5.73 -16.02 0.00 0.00 0.00 25.63 13.44 -16.29 -3.91 -12.04 35.87 -0.51 -7.31 -18.09 -0.03 -1.17 3.22 0.30 -2.74 5.71 2.49 -3.58 1.50 2.64 -1.79 -1.52 0.21 4.23 -10.48 -3.00 5.85 4.67 -0.66 2.77 3.48 0.00 -0.00 0.00 -91.22 5.86 27.51 27.13 -38.30 -9.58 -0.00 0.00 -24.52 23.15 18.79 7.84 -7.12 0.00 -0.00 -5.03 50.22 -0.65 0.00 -0.00 0.00 90.83 -12.82 -5.43 -6.11 10.45 -0.56 0.00 0.00 10.87 -18.79 14.53 -4.88 7.12 -0.00 -0.00 5.92 -14.73 4.24
9.86 17.27 9.47 -1.97 4.18 -4.93 0.00 0.00 0.00 -19.10 1.47 -1.94 11.79 18.30 65.33 -0.48 19.40 9.11 0.71 -5.39 -15.03 0.00 0.00 0.00 26.50 11.86 -14.09 -3.77 -11.84 35.17 -0.77 -5.34 -19.40 -0.10 -2.08 5.74 1.03 -2.31 5.92 2.11 -2.97 1.59 1.80 -1.48 -1.61 -0.16 3.52 -10.71 -2.29 4.89 4.44 -0.42 2.32 3.39 -0.00 0.00 0.00 -91.73 4.57 24.47 19.86 -30.47 -5.46 -0.00 0.00 -22.59 21.65 19.07 7.39 -7.12 0.00 -0.00 -6.58 50.27 -0.86 -0.00 0.00 0.00 91.34 -9.47 0.45 -7.15 12.17 -0.76 0.00 0.00 4.57 -20.65 15.13 -5.62 7.12 -0.00 -0.00 4.68 -13.90 3.43
9.89 17.35 10.13 -1.92 3.21 -6.02 0.00 0.00 0.00 -19.46 1.02 -6.35 13.35 18.91 70.21 -1.25 20.47 -0.34 0.41 -4.09 -11.32 0.00 0.00 0.00 27.27 9.59 -10.16 -3.59 -11.59 34.30 -0.96 -3.85 -20.28 -0.08 -1.85 5.10 1.46 -1.97 6.57 1.75 -2.50 2.22 1.17 -1.25 -1.38 -0.30 3.13 -9.93 -1.99 4.34 3.67 -0.35 2.07 2.96 -0.00 -0.00 0.00 -92.72 3.30 17.36 14.06 -22.82 -2.85 -0.00 0.00 -17.30 20.43 19.35 7.03 -7.12 0.00 -0.00 -7.86 50.36 -1.04 -0.00 -0.00 0.00 91.16 -5.67 6.82 -8.37 14.15 -1.04 0.00 0.00 0.15 -22.35 14.79 -5.99 7.12 -0.00 -0.00 3.51 -14.07 2.56
9.89 17.42 10.76 -1.76 1.07 -6.03 0.00 0.00 0.00 -19.50 -0.03 -11.86 14.02 19.12 72.27 -0.90 16.54 -4.76 0.51 -4.58 -12.70 0.00 0.00 0.00 27.94 9.35 -6.37 -3.15 -10.94 32.08 -1.03 -3.19 -20.54 -0.00 -0.11 0.31 1.40 -1.29 6.78 1.40 -1.59 2.20 0.78 -0.80 -1.53 -0.38 2.99 -9.80 -1.44 4.13 4.27 -0.17 1.98 3.12 -0.00 0.00 0.00 -93.31 3.92 9.04 10.49 -17.50 -1.62 -0.00 0.00 -12.66 22.26 19.58 7.81 -7.12 0.00 -0.00 -6.12 50.90 -0.89 -0.00 0.00 0.00 90.71 -2.02 14.41 -9.67 16.22 -1.38 0.00 -0.00 -3.47 -22.90 14.20 -5.91 7.12 -0.00 -0.00 3.11 -14.64 2.23
9.91 17.47 11.40 -2.36 -1.02 -5.69 0.00 0.00 0.00 -18.44 -1.76 -17.04 13.71 19.02 71.32 -0.43 11.86 -7.16 0.47 -4.40 -12.21 0.00 0.00 0.00 29.00 8.68 -3.56 -2.85 -10.45 30.46 -1.22 -1.40 -21.43 -0.03 -1.07 2.95 2.32 -0.77 6.55 1.37 -0.85 2.24 0.17 -0.43 -1.37 -0.54 2.87 -9.67 -1.67 4.01 4.30 -0.22 1.91 3.11 0.00 -0.00 0.00 -93.97 5.04 0.86 8.50 -14.36 -1.07 -0.00 0.00 -7.92 23.81 20.98 8.98 -7.12 0.00 -0.00 -4.97 52.65 -0.94 0.00 -0.00 0.00 89.56 2.39 22.83 -11.13 18.48 -1.82 0.00 -0.00 -8.17 -23.61 13.02 -5.62 7.12 -0.00 -0.00 2.55 -15.83 1.76
9.95 17.46 12.03 -1.89 -2.54 -5.57 0.00 0.00 0.00 -18.60 -4.13 -20.76 12.29 18.51 66.92 -0.15 8.92 -9.33 0.52 -4.62 -12.82 0.00 0.00 0.00 28.55 7.24 -1.13 -2.71 -10.22 29.69 -1.48 0.28 -22.95 -0.01 -0.75 2.07 2.37 -0.38 6.89 0.89 -0.32 2.02 -0.39 -0.16 -1.79 -0.02 2.91 -9.56 -2.21 4.05 4.73 -0.48 1.92 3.26 -0.00 -0.00 0.00 -94.35 7.70 -3.72 7.90 -13.40 -0.93 -0.00 0.00 -6.64 24.82 20.64 9.26 -7.12 0.00 -0.00 -3.85 52.48 -0.71 -0.00 -0.00 0.00 88.46 6.06 28.74 -13.14 21.49 -2.50 0.00 -0.00 -10.29 -23.29 14.70 -6.23 7.12 -0.00 -0.00 2.87 -14.05 2.09
